<svg width="22" height="24" viewBox="0 0 22 24" fill="none" xmlns="http://www.w3.org/2000/svg">
<path d="M19.6045 20.0172L18.3448 5.8319C18.3178 5.51697 18.0524 5.27853 17.7419 5.27853H15.1505C15.1145 2.91207 13.18 1 10.8045 1C8.42904 1 6.49448 2.91207 6.45849 5.27853H3.86708C3.55215 5.27853 3.29121 5.51697 3.26421 5.8319L2.0045 20.0172C2.0045 20.0352 2 20.0532 2 20.0712C2 21.6863 3.48016 23 5.30225 23H16.3067C18.1288 23 19.609 21.6863 19.609 20.0712C19.609 20.0532 19.609 20.0352 19.6045 20.0172ZM10.8045 2.21472C12.5096 2.21472 13.8998 3.58241 13.9358 5.27853H7.67321C7.7092 3.58241 9.09939 2.21472 10.8045 2.21472ZM16.3067 21.7853H5.30225C4.15951 21.7853 3.23272 21.0294 3.21472 20.0982L4.42045 6.49775H6.45399V8.34233C6.45399 8.67975 6.72393 8.94969 7.06135 8.94969C7.39877 8.94969 7.66871 8.67975 7.66871 8.34233V6.49775H13.9358V8.34233C13.9358 8.67975 14.2057 8.94969 14.5432 8.94969C14.8806 8.94969 15.1505 8.67975 15.1505 8.34233V6.49775H17.184L18.3943 20.0982C18.3763 21.0294 17.445 21.7853 16.3067 21.7853Z" fill="black" stroke="black"/>
</svg>
