<svg width="24" height="21" viewBox="0 0 24 21" fill="none" xmlns="http://www.w3.org/2000/svg">
<path d="M21.223 2.79563C20.071 1.64363 18.5459 1.01399 16.9182 1.01399C15.2904 1.01399 13.7606 1.64829 12.6086 2.80029L12.007 3.40195L11.396 2.79097C10.244 1.63896 8.70957 1 7.08184 1C5.45878 1 3.929 1.6343 2.78166 2.78164C1.62966 3.93364 0.995362 5.46342 1.00003 7.09115C1.00003 8.71887 1.63899 10.244 2.79099 11.396L11.5499 20.1549C11.6712 20.2762 11.8344 20.3415 11.993 20.3415C12.1516 20.3415 12.3148 20.2809 12.4361 20.1596L21.2137 11.4146C22.3657 10.2626 23 8.73287 23 7.10514C23.0046 5.47741 22.375 3.94763 21.223 2.79563ZM20.3275 10.5238L11.993 18.8257L3.67714 10.5098C2.76301 9.5957 2.2593 8.38307 2.2593 7.09115C2.2593 5.79923 2.75834 4.58659 3.67248 3.67712C4.58195 2.76765 5.79459 2.26394 7.08184 2.26394C8.37376 2.26394 9.59106 2.76765 10.5052 3.68178L11.5593 4.73584C11.8064 4.98303 12.2029 4.98303 12.4501 4.73584L13.4948 3.69111C14.4089 2.77697 15.6262 2.27326 16.9135 2.27326C18.2007 2.27326 19.4134 2.77697 20.3275 3.68645C21.2417 4.60059 21.7407 5.81322 21.7407 7.10514C21.7454 8.39706 21.2417 9.60969 20.3275 10.5238Z" fill="black" stroke="black"/>
</svg>
